<svg width="64" height="64" viewBox="0 0 64 64" fill="none" xmlns="http://www.w3.org/2000/svg">
<path d="M57.2 22.1C51.7 7.30001 33.7 13.9 32 21.3C29.7 13.4 12.2 7.50001 6.8 22.1C0.799999 38.3 29.9 52.8 32 55.2C34.1 53.3 63.2 38 57.2 22.1Z" fill="#FF5A79"/>
<path d="M60 18.5C59.4 16.6 58.4 14.9 57 13.5C55.7 12.1 54 11 52.3 10.3C51.4 9.90005 50.5 9.70005 49.6 9.50005C49.1 9.40005 48.7 9.40005 48.2 9.30005H46.8L48 9.90005L49.2 10.5C50 10.9 50.8 11.3 51.5 11.8C53 12.7 54.3 13.8 55.5 15C56.7 16.2 57.6 17.6 58.5 19.2C58.9 20 59.3 20.8 59.6 21.6C59.8 22 59.9 22.5 60.1 22.9L60.6 24.2C60.7 23.7 60.7 23.2 60.7 22.8C60.7 22.3 60.7 21.8 60.6 21.4C60.5 20.4 60.3 19.4 60 18.5" fill="#FF5A79"/>
<path d="M62 15.8C61.9 15.1 61.8 14.4 61.6 13.7C61.2 12.3 60.4 11 59.4 9.9C58.4 8.8 57.2 8 55.9 7.6C55.2 7.4 54.6 7.2 53.9 7.1C53.6 7.1 53.2 7 52.9 7C52.6 7 52.2 7 51.9 7.1C52.2 7.3 52.5 7.4 52.8 7.6C53 7.7 53.3 7.9 53.6 8C54.2 8.3 54.7 8.6 55.2 9C56.2 9.7 57.2 10.5 58 11.3C58.8 12.2 59.5 13.2 60.2 14.3C60.5 14.8 60.8 15.4 61.1 16C61.2 16.3 61.4 16.6 61.5 16.9C61.6 17.2 61.8 17.5 61.9 17.9C62 17.5 62 17.2 62 16.8V15.8" fill="#FF5A79"/>
<path d="M4.29999 21.6C4.59999 20.8 4.99999 19.9 5.39999 19.2C6.19999 17.6 7.19999 16.2 8.39999 15C9.59999 13.8 10.9 12.7 12.4 11.8C13.1 11.3 13.9 10.9 14.7 10.5L15.9 9.90005L17.1 9.30005H15.7C15.2 9.30005 14.8 9.40005 14.3 9.50005C13.4 9.70005 12.5 9.90005 11.6 10.3C9.89999 11 8.29999 12.1 6.99999 13.5C5.69999 14.9 4.59999 16.6 3.99999 18.5C3.69999 19.4 3.49999 20.4 3.39999 21.3C3.29999 21.8 3.29999 22.3 3.29999 22.7C3.29999 23.2 3.29999 23.7 3.39999 24.1L3.89999 22.8C3.99999 22.4 4.09999 22 4.29999 21.6" fill="#FF5A79"/>
<path d="M6 11.4C6.8 10.5 7.8 9.70002 8.8 9.00002C9.3 8.70002 9.9 8.30002 10.4 8.00002C10.7 7.80002 11 7.70002 11.3 7.50002C11.6 7.30002 11.9 7.20002 12.2 7.00002C11.9 7.00002 11.5 6.90002 11.2 6.90002C10.9 6.90002 10.5 6.90002 10.2 7.00002C9.5 7.10002 8.9 7.30002 8.2 7.50002C6.8 8.10002 5.6 8.90002 4.6 9.90002C3.6 11 2.8 12.3 2.4 13.7C2.2 14.4 2.1 15.1 2 15.8V16.9C2 17.3 2 17.6 2.1 18C2.2 17.7 2.4 17.4 2.5 17C2.7 16.6 2.8 16.3 3 16C3.3 15.4 3.6 14.8 3.9 14.3C4.5 13.2 5.2 12.2 6 11.4" fill="#FF5A79"/>
<path d="M7.80001 40.5L7.70001 40.7C8.20001 42.2 9.00001 43.4 9.80001 44.6C10.6 45.8 11.6 46.8 12.6 47.7C13.6 48.6 14.7 49.5 15.9 50.3C17.1 51.1 18.4 51.7 19.9 52.1L20 51.9C18 49.9 16 48 14 46.1C11.9 44.3 9.90001 42.3 7.80001 40.5" fill="#FF5A79"/>
<path d="M3.6 43.5L3.5 43.7C4.2 45.4 5.1 46.8 6.1 48.1C7.1 49.4 8.2 50.6 9.4 51.7C10.6 52.8 11.8 53.8 13.2 54.8C14.6 55.7 16 56.6 17.7 57.1L17.8 56.9C15.5 54.6 13.1 52.4 10.8 50.1C8.4 47.9 6 45.6 3.6 43.5" fill="#FF5A79"/>
<path d="M51.5 47.7C52.5 46.7 53.5 45.7 54.3 44.6C55.1 43.5 55.9 42.2 56.4 40.7L56.3 40.5C54.2 42.3 52.2 44.3 50.1 46.1C48.1 48 46.1 49.9 44.1 51.9L44.2 52.1C45.7 51.7 47 51 48.2 50.3C49.4 49.5 50.4 48.6 51.5 47.7" fill="#FF5A79"/>
<path d="M53.2 50.1C50.9 52.4 48.5 54.6 46.2 56.9L46.3 57.1C48 56.5 49.4 55.7 50.8 54.8C52.2 53.9 53.4 52.9 54.6 51.7C55.8 50.6 56.9 49.4 57.9 48.1C58.9 46.8 59.8 45.4 60.5 43.7L60.4 43.5C58 45.6 55.6 47.9 53.2 50.1" fill="#FF5A79"/>
</svg>
